<?xml version="1.0" standalone="no"?>
<!DOCTYPE svg PUBLIC "-//W3C//DTD SVG 20010904//EN"
 "http://www.w3.org/TR/2001/REC-SVG-20010904/DTD/svg10.dtd">
<svg version="1.0" xmlns="http://www.w3.org/2000/svg"
 width="1379.000000pt" height="2048.000000pt" viewBox="0 0 1379.000000 2048.000000"
 preserveAspectRatio="xMidYMid meet">
<metadata>
Created by potrace 1.16, written by Peter Selinger 2001-2019
</metadata>
<g transform="translate(0.000000,2048.000000) scale(0.100000,-0.100000)"
fill="#000000" stroke="none">
<path d="M0 10240 l0 -10240 6895 0 6895 0 0 10240 0 10240 -6895 0 -6895 0 0
-10240z m7095 9025 c88 -7 176 -18 195 -24 19 -6 84 -22 145 -37 122 -29 272
-82 489 -173 57 -23 252 -123 314 -160 29 -17 55 -31 57 -31 5 0 99 -57 190
-114 28 -17 59 -37 70 -43 11 -7 61 -38 110 -68 144 -90 214 -141 310 -228 90
-82 236 -238 244 -260 2 -7 16 -28 31 -47 33 -43 67 -102 115 -200 20 -41 41
-84 47 -95 6 -11 15 -33 19 -50 4 -16 19 -61 32 -100 47 -134 102 -378 118
-520 26 -247 40 -354 59 -460 12 -66 26 -149 30 -185 8 -68 24 -184 41 -285 5
-33 13 -105 19 -160 5 -55 14 -140 19 -190 53 -483 63 -929 25 -1055 -8 -25
-14 -59 -14 -77 0 -17 -5 -44 -10 -58 -6 -15 -17 -55 -24 -89 -32 -139 -46
-192 -92 -341 -8 -27 -19 -68 -24 -91 -5 -22 -13 -51 -19 -65 -5 -13 -17 -51
-26 -84 -9 -33 -23 -76 -30 -95 -7 -19 -19 -53 -28 -75 -8 -22 -28 -76 -46
-121 -17 -44 -31 -83 -31 -87 0 -4 -14 -37 -31 -74 -17 -38 -43 -95 -57 -128
-94 -211 -192 -380 -317 -550 -24 -33 -44 -67 -45 -75 -1 -47 -158 -235 -243
-290 -45 -31 -51 -47 -36 -102 15 -56 14 -244 -2 -297 -13 -43 -2 -120 26
-186 7 -16 21 -68 30 -115 9 -47 23 -110 31 -140 32 -131 28 -278 -12 -412 -8
-26 -14 -55 -14 -65 0 -11 -7 -28 -15 -39 -8 -10 -15 -29 -15 -40 0 -12 -7
-35 -15 -50 -8 -16 -15 -37 -15 -47 0 -9 -13 -45 -29 -80 -16 -34 -37 -80 -46
-102 -48 -114 -173 -335 -282 -500 -22 -33 -46 -72 -54 -87 -24 -45 -65 -121
-87 -158 -41 -68 -133 -264 -168 -356 -13 -35 -32 -83 -43 -106 -32 -69 -51
-117 -81 -208 -81 -236 -76 -225 -103 -228 -18 -2 -27 2 -31 15 -7 22 -330
343 -456 453 -47 41 -107 95 -135 120 -80 73 -142 120 -149 113 -3 -4 -6 -17
-6 -31 0 -14 -8 -31 -17 -38 -15 -11 -16 -13 -3 -14 9 0 21 5 26 10 7 7 20 0
39 -20 25 -26 27 -32 16 -53 -7 -12 -20 -27 -30 -32 -67 -37 -73 -39 -89 -28
-13 7 -20 6 -27 -4 -12 -16 -77 -28 -102 -18 -14 5 -5 13 41 35 36 17 67 41
78 59 11 17 18 31 15 31 -15 0 -109 -56 -137 -82 -63 -57 -121 -38 -218 71
-62 70 -63 71 -46 96 9 14 25 25 36 25 17 0 19 2 7 16 -18 22 -52 11 -123 -44
-95 -72 -390 -372 -477 -484 -18 -24 -58 -72 -89 -108 -31 -36 -60 -73 -63
-83 -21 -56 -64 48 -167 408 -23 77 -47 160 -54 185 -8 25 -24 79 -36 120 -25
87 -35 111 -78 200 -17 36 -34 76 -38 90 -11 42 -94 219 -147 315 -19 35 -34
67 -68 150 -4 11 -15 36 -23 55 -25 58 -81 211 -100 275 -32 106 -35 119 -41
155 -3 19 -10 49 -15 65 -4 17 -11 82 -15 145 -6 123 10 267 42 370 19 62 22
202 4 224 -34 41 -46 253 -21 353 l14 52 -32 32 c-18 18 -32 37 -32 41 0 5
-13 26 -29 46 -16 20 -33 54 -36 75 -4 20 -11 37 -16 37 -5 0 -9 4 -9 9 0 4
-21 30 -47 57 -110 112 -236 295 -300 434 -48 104 -115 239 -142 289 -17 30
-37 71 -46 90 -8 20 -19 43 -25 51 -5 8 -16 31 -24 50 -8 19 -24 58 -36 85
-11 28 -25 58 -30 67 -6 10 -10 23 -10 29 0 6 -7 25 -15 42 -17 37 -99 283
-114 342 -6 22 -17 63 -25 90 -36 118 -49 163 -63 220 -34 147 -67 357 -83
540 -5 61 -13 119 -16 130 -8 27 -19 152 -38 460 -9 143 -21 296 -26 341 -21
167 -31 621 -20 853 6 124 13 228 15 232 3 4 9 53 15 110 19 203 46 326 115
519 25 68 89 192 132 256 21 30 43 63 48 72 36 61 222 259 320 342 32 28 188
145 225 170 12 8 40 27 61 43 22 15 90 62 152 104 62 42 115 80 118 85 12 19
388 247 524 318 98 51 331 150 353 150 6 0 26 6 44 14 50 21 138 43 363 87 65
13 345 35 465 37 41 1 147 -5 235 -13z m2380 -8250 c28 -2 101 -7 163 -10 141
-6 161 -15 109 -45 -20 -12 -37 -26 -37 -30 0 -11 26 -20 55 -20 13 0 50 -7
82 -15 31 -8 63 -15 70 -15 7 0 13 7 13 15 0 8 -4 15 -10 15 -5 0 -10 9 -10
20 0 28 15 25 46 -9 14 -16 40 -32 58 -35 18 -4 45 -19 59 -34 30 -31 71 -132
59 -143 -4 -4 -28 -3 -53 3 -55 13 -79 6 -79 -21 0 -26 -11 -32 -46 -22 -34 9
-42 33 -20 66 16 24 15 24 -22 31 -20 4 -65 20 -99 36 -34 15 -68 25 -77 22
-17 -7 -22 -24 -7 -24 5 0 29 -16 53 -35 23 -19 54 -43 68 -54 18 -14 22 -23
15 -30 -15 -15 -152 31 -195 65 -21 16 -127 69 -180 89 -87 33 -130 57 -130
71 0 14 12 18 39 14 8 -1 34 6 59 15 54 21 41 35 -31 33 -37 0 -54 4 -69 20
-28 28 -15 45 31 38 20 -3 59 -8 86 -11z m-5377 -50 c18 -6 15 -45 -5 -51 -58
-18 -58 -18 -25 -51 l31 -30 -54 -27 c-30 -14 -57 -31 -60 -36 -3 -6 -16 -10
-27 -10 -12 0 -36 -11 -54 -25 -18 -14 -39 -25 -47 -25 -8 0 -25 -8 -38 -18
-29 -22 -107 -52 -135 -52 -11 0 -25 -5 -32 -12 -6 -6 -15 -9 -19 -5 -3 4 23
34 58 67 35 33 59 60 52 60 -18 0 -194 -59 -224 -75 -31 -17 -103 -37 -144
-39 -27 -1 -30 2 -28 29 2 35 10 136 12 148 1 4 21 7 45 7 37 0 48 5 70 31 14
17 26 36 26 44 0 14 21 25 51 25 26 0 24 -23 -6 -58 -14 -17 -22 -33 -17 -36
9 -5 150 11 197 23 44 11 37 32 -17 50 -90 30 -86 47 16 66 56 10 342 10 374
0z m-2099 -259 c10 -12 8 -41 -9 -133 -12 -65 -25 -134 -30 -153 -5 -19 -12
-62 -16 -96 -6 -58 -35 -117 -50 -102 -7 8 7 143 31 294 19 115 19 144 1 144
-8 0 -18 -4 -21 -10 -3 -6 -50 -10 -106 -10 -89 0 -100 2 -97 17 3 19 46 32
123 38 28 2 70 8 95 13 65 14 66 13 79 -2z m-453 -103 c-18 -125 -26 -176 -40
-241 -9 -40 -16 -75 -16 -78 0 -2 -4 -4 -10 -4 -5 0 -13 15 -18 33 -6 24 -14
33 -34 35 -33 4 -166 -43 -193 -68 -12 -11 -32 -20 -44 -20 -20 0 -22 4 -17
28 4 15 11 47 16 72 4 25 15 65 24 90 9 25 16 55 16 67 0 12 5 25 10 28 6 3
10 19 10 35 0 37 9 42 52 28 l35 -11 -39 -40 c-55 -57 -49 -71 46 -113 44 -19
85 -34 92 -34 21 0 52 82 60 158 6 68 8 72 31 72 22 0 23 -3 19 -37z m-446
-65 c0 -12 -4 -35 -9 -52 -6 -17 -15 -65 -21 -106 -21 -151 -57 -310 -70 -310
-16 0 -21 55 -10 105 6 28 15 75 21 105 5 30 16 72 24 93 8 20 15 55 15 77 0
21 5 42 10 45 6 4 10 14 9 23 -3 32 1 42 16 42 9 0 15 -9 15 -22z m11580 -377
c5 -11 10 -31 10 -45 0 -42 37 -57 161 -67 82 -6 116 -12 130 -25 32 -28 23
-37 -28 -30 -27 4 -92 13 -146 20 -87 11 -101 15 -127 42 -35 35 -54 124 -26
124 8 0 20 -9 26 -19z m-10773 -18 c6 -16 -26 -43 -50 -43 -12 0 -42 -6 -67
-14 -40 -11 -71 -15 -175 -20 -24 -1 -30 3 -30 19 0 17 9 21 55 27 30 3 71 11
90 17 19 6 53 11 75 12 22 0 49 4 60 9 24 10 37 8 42 -7z m2713 1 c25 -9 49
-22 53 -30 4 -8 17 -14 27 -14 15 0 20 -7 20 -27 0 -14 7 -34 15 -43 14 -16
14 -21 -6 -54 -15 -25 -17 -35 -7 -31 16 6 18 -5 21 -138 2 -68 -1 -81 -18
-93 -11 -8 -29 -22 -41 -32 -53 -44 -86 -62 -113 -62 -16 0 -33 -5 -37 -11
-11 -19 -134 -70 -159 -67 -12 1 -29 -3 -37 -10 -21 -17 -46 -6 -63 28 -10 19
-20 27 -33 24 -12 -4 -35 14 -76 61 -56 64 -66 95 -31 95 9 0 15 10 16 28 6
147 9 157 46 147 19 -4 37 3 79 35 29 22 58 40 63 40 9 0 31 31 31 44 0 3 -7
6 -15 6 -8 0 -15 -3 -15 -7 0 -5 -20 -21 -45 -36 -25 -16 -45 -32 -45 -37 0
-15 -29 -19 -40 -5 -25 31 133 155 198 155 9 0 30 7 46 15 15 8 41 15 57 15
15 0 31 5 34 10 8 14 22 12 75 -6z m4800 -253 c0 -5 15 -14 33 -20 28 -10 76
-47 140 -108 19 -18 23 -43 7 -43 -15 0 -12 -15 9 -41 l20 -24 9 25 c9 23 11
24 18 6 5 -13 3 -21 -4 -24 -17 -5 -15 -62 1 -62 22 0 77 -51 77 -71 0 -11 -4
-19 -9 -19 -5 0 -13 -10 -17 -22 -7 -25 -79 -98 -96 -98 -6 0 -27 -15 -48 -32
-50 -44 -138 -98 -159 -98 -9 0 -25 6 -36 14 -11 7 -46 21 -77 31 -31 9 -65
26 -74 36 -9 10 -33 24 -53 30 -40 13 -156 98 -179 130 -11 16 -13 37 -7 95 4
40 11 76 16 80 5 3 9 32 9 65 0 53 3 63 35 98 41 45 83 61 101 37 16 -22 51
-20 71 4 15 17 30 20 115 20 54 0 98 -4 98 -9z m1192 -1671 c41 -28 108 -100
148 -160 26 -39 75 -87 95 -93 98 -29 470 -37 618 -13 53 9 105 25 134 40 42
24 48 25 63 11 22 -20 34 -105 19 -138 -21 -47 -197 -195 -294 -247 -161 -87
-199 -100 -292 -100 -43 0 -96 5 -118 10 -59 13 -79 4 -120 -56 -21 -30 -66
-81 -102 -114 -58 -54 -68 -60 -107 -60 -24 0 -61 -7 -82 -16 -66 -28 -165
-45 -254 -45 -94 1 -235 18 -263 33 -13 7 -24 5 -36 -6 -10 -9 -25 -16 -34
-16 -20 0 -102 56 -177 120 -79 67 -83 69 -115 70 -17 0 -56 -9 -88 -20 -83
-29 -170 -25 -297 16 -59 19 -196 89 -240 122 -98 73 -176 180 -151 205 6 6
91 11 213 12 205 2 292 13 458 59 145 40 167 56 226 169 98 185 194 240 299
171 24 -16 36 -16 128 -6 56 6 114 9 129 6 21 -5 37 1 65 23 81 63 108 67 175
23z m-121 -1131 c17 -17 19 -28 14 -74 -10 -79 1 -127 42 -174 19 -23 39 -56
44 -74 5 -20 20 -39 35 -48 15 -7 46 -35 69 -61 24 -27 45 -48 48 -48 3 0 19
13 36 29 53 50 97 49 471 -4 203 -29 395 -31 436 -5 12 7 29 10 38 7 27 -11
19 -54 -19 -96 -19 -21 -35 -43 -35 -48 0 -5 -18 -26 -40 -47 -22 -21 -40 -45
-40 -54 0 -28 -124 -136 -179 -156 -27 -9 -55 -24 -61 -31 -6 -8 -26 -17 -43
-20 -18 -4 -39 -13 -47 -20 -8 -7 -46 -23 -84 -35 -74 -24 -140 -22 -182 5
-31 20 -44 19 -44 -4 0 -27 -53 -68 -97 -75 -24 -4 -66 0 -115 13 l-77 20 -62
-41 c-51 -34 -73 -43 -121 -46 -42 -3 -65 0 -83 12 -19 12 -30 14 -44 6 -53
-28 -128 1 -215 83 -53 50 -61 54 -83 44 -30 -13 -151 5 -187 28 -12 8 -33 36
-45 61 -19 38 -27 45 -45 40 -95 -27 -149 -13 -268 72 -140 100 -196 148 -218
190 -13 23 -26 42 -30 42 -4 0 -18 24 -30 53 -12 28 -28 59 -35 67 -23 28
-105 193 -99 201 8 13 41 11 72 -5 59 -30 279 -76 407 -85 263 -20 390 -34
422 -48 19 -7 43 -29 55 -48 24 -41 34 -43 67 -11 15 14 53 40 86 58 42 24 65
44 77 69 9 19 28 41 42 49 15 7 37 27 49 44 23 30 57 120 57 148 0 15 19 38
32 38 4 0 17 -9 29 -21z m-7588 -950 c77 -5 167 -13 201 -19 33 -5 84 -10 111
-10 28 0 113 -6 190 -14 77 -9 219 -22 315 -31 96 -9 222 -20 280 -26 58 -5
170 -14 250 -19 80 -6 154 -12 165 -15 11 -3 85 -10 164 -15 79 -5 183 -13
230 -19 91 -11 276 -26 501 -42 74 -5 149 -13 165 -17 29 -8 30 -11 30 -63 -1
-96 -67 -644 -79 -651 -6 -4 -31 -5 -56 -3 -25 3 -200 19 -390 35 -190 16
-390 34 -445 40 -55 5 -129 12 -165 15 -36 3 -139 12 -230 20 -91 8 -246 21
-345 30 -249 21 -493 44 -600 55 -49 5 -126 12 -170 15 -44 4 -149 13 -234 21
-85 8 -160 14 -167 14 -26 0 -33 34 -23 105 11 78 30 220 53 400 22 168 28
188 56 202 14 7 32 10 40 7 8 -3 77 -9 153 -15z m6094 -599 c46 -50 101 -85
236 -148 13 -6 7 34 -8 54 -23 31 -19 79 10 98 48 32 85 10 100 -60 16 -72 27
-94 45 -94 10 0 22 5 25 10 11 17 92 50 125 50 17 0 44 7 61 15 33 18 68 6 70
-23 2 -32 4 -37 14 -41 12 -6 57 61 71 104 10 32 30 41 70 31 31 -8 41 -48 20
-81 -9 -13 -16 -33 -16 -44 0 -18 4 -17 73 11 90 38 133 69 166 124 14 24 29
44 33 44 3 0 16 -17 28 -37 20 -35 21 -42 10 -118 -6 -44 -17 -101 -25 -126
-8 -26 -15 -55 -15 -65 0 -27 -31 -104 -57 -142 -12 -19 -25 -43 -29 -55 -10
-33 -82 -134 -115 -161 -16 -14 -39 -28 -51 -31 -37 -12 -68 -46 -68 -76 0
-17 15 -47 40 -78 37 -47 42 -49 75 -44 37 6 41 2 26 -26 -6 -10 -6 -23 -1
-31 12 -20 40 5 40 37 0 13 7 26 15 30 21 7 23 4 31 -45 5 -30 3 -42 -6 -42
-6 0 -45 -16 -87 -36 -57 -28 -77 -43 -84 -64 -6 -15 -21 -32 -35 -39 -33 -15
-129 -14 -154 1 -16 10 -28 9 -63 -3 -38 -15 -47 -15 -80 -2 -33 14 -41 13
-70 0 -36 -17 -102 -15 -159 6 -48 17 -54 23 -39 41 10 11 6 18 -16 33 -15 10
-41 25 -57 31 l-29 13 22 23 c11 12 21 25 21 28 0 8 -68 48 -81 48 -14 0 -11
-28 7 -55 15 -23 15 -25 -2 -25 -28 0 -54 30 -54 64 0 54 8 57 90 36 61 -16
77 -17 85 -7 6 8 22 22 38 31 15 10 27 24 27 31 0 7 7 18 16 25 9 8 14 25 12
42 -3 31 -16 41 -96 74 -24 10 -58 35 -76 56 -56 65 -133 222 -186 380 -48
140 -51 158 -45 213 7 63 20 89 39 78 6 -4 34 -32 63 -63z m-3296 -1632 c64
-29 131 -86 164 -138 42 -67 68 -164 61 -228 -17 -159 -118 -300 -266 -374
-60 -31 -72 -33 -161 -32 -141 1 -247 47 -316 137 -63 83 -75 159 -48 302 20
106 57 178 128 248 88 87 165 117 297 113 67 -2 97 -8 141 -28z m2438 -143
c125 -75 183 -145 239 -293 27 -70 32 -97 31 -165 -1 -96 -2 -100 -53 -160
-99 -118 -264 -131 -429 -34 -58 34 -145 121 -172 171 -11 20 -23 36 -27 36
-5 0 -8 5 -8 11 0 5 -9 29 -19 52 -11 24 -22 69 -26 102 -16 148 60 266 186
289 19 3 44 13 55 21 34 27 154 10 223 -30z m-2649 -2765 c88 -28 177 -96 226
-172 96 -150 69 -328 -69 -460 -166 -159 -418 -170 -580 -27 -60 52 -96 114
-112 190 -16 76 -6 131 44 235 47 99 86 144 161 188 114 67 216 81 330 46z
m2682 -31 c90 -18 162 -60 231 -134 36 -40 97 -142 97 -164 0 -10 3 -21 8 -25
4 -4 12 -49 19 -99 23 -182 -31 -293 -175 -363 -48 -23 -74 -28 -159 -32 -80
-3 -108 -1 -134 12 -18 9 -36 16 -40 16 -16 0 -95 59 -136 102 -22 24 -55 70
-71 103 -95 187 -80 357 40 471 58 56 115 90 180 108 67 18 76 18 140 5z"/>
<path d="M6625 18718 c-148 -19 -265 -85 -418 -235 -62 -60 -155 -145 -207
-188 -52 -44 -127 -109 -166 -145 -39 -36 -86 -78 -105 -94 -61 -52 -154 -131
-159 -136 -3 -3 -32 -27 -65 -55 -77 -65 -203 -192 -269 -275 -121 -150 -228
-365 -342 -690 -12 -36 -39 -110 -59 -165 -127 -348 -189 -638 -271 -1260 -13
-99 -34 -256 -48 -350 -14 -93 -26 -183 -26 -200 0 -41 17 -20 29 35 6 25 14
63 20 85 18 73 33 159 41 241 4 45 13 90 18 100 6 11 13 45 17 77 10 80 53
188 93 232 17 20 32 41 32 46 0 5 9 9 19 9 13 0 21 9 26 28 4 21 23 40 75 73
71 45 87 72 49 82 -32 8 -13 27 27 27 20 0 45 5 56 11 20 11 20 13 4 24 -15
12 -15 13 6 18 13 4 33 4 45 1 12 -3 42 5 71 20 28 14 59 26 69 26 10 0 29 7
42 16 37 26 259 13 364 -21 43 -14 95 -25 117 -25 21 0 49 -4 62 -9 13 -5 48
-14 78 -21 30 -7 77 -25 103 -39 44 -24 49 -25 61 -9 12 16 15 15 49 -9 36
-25 38 -26 51 -8 13 18 23 18 109 -1 37 -9 36 15 -4 61 -35 39 -98 79 -142 89
-16 4 -45 17 -65 30 -20 12 -53 28 -72 36 -19 7 -39 17 -45 22 -5 4 -25 8 -45
8 -48 0 -166 26 -276 61 -109 35 -155 37 -193 8 -23 -17 -37 -20 -68 -15 -21
4 -59 7 -85 6 -27 0 -48 4 -48 10 0 5 4 10 9 10 5 0 27 19 50 41 68 69 49 97
-44 65 -22 -8 -55 -17 -73 -21 l-34 -7 17 31 c30 59 -17 72 -64 19 -38 -43
-52 -28 -23 24 28 47 25 56 -12 27 -39 -31 -48 -20 -25 31 17 37 19 50 10 74
-9 25 -8 33 8 50 10 12 21 29 24 38 3 10 17 20 30 23 14 4 30 18 36 31 6 14
17 27 25 30 7 3 12 13 9 23 -3 11 10 32 36 58 31 31 37 43 28 52 -9 9 -6 11
13 9 16 -2 25 3 28 15 3 12 -3 17 -22 17 -32 0 -47 39 -21 55 26 15 75 65 75
76 0 6 4 8 9 5 12 -8 34 21 26 34 -11 17 -23 11 -37 -17 -9 -19 -22 -29 -42
-31 -16 -2 -35 -10 -43 -18 -14 -14 -43 -20 -43 -9 0 3 26 32 58 64 31 32 82
90 112 129 30 39 62 74 71 77 19 6 34 48 19 53 -14 5 -12 32 3 34 41 5 87 19
85 27 -2 6 38 96 74 167 22 44 149 160 228 209 25 15 47 31 50 34 10 12 71 42
127 63 41 15 78 21 125 20 51 -2 74 2 101 18 29 18 39 19 61 9 22 -10 37 -9
84 5 31 10 62 22 67 26 6 4 46 11 90 15 43 4 91 12 105 17 20 8 101 15 245 20
11 0 34 -3 50 -7 48 -13 90 -12 87 3 -2 12 3 14 50 16 16 1 24 -2 20 -9 -3 -5
2 -4 12 4 12 11 20 11 28 3 11 -11 9 -13 -29 -24 -9 -2 -8 -8 2 -21 8 -12 35
-22 72 -28 32 -6 73 -13 91 -16 22 -3 37 -14 47 -33 14 -26 18 -28 115 -35 72
-5 110 -3 131 6 42 17 58 0 35 -36 -15 -23 -15 -26 -1 -31 9 -4 28 -4 44 -1
31 7 51 -7 51 -36 0 -16 5 -18 28 -13 44 11 59 9 82 -14 17 -17 18 -21 5 -26
-24 -10 -17 -33 13 -40 76 -17 77 -17 83 -75 3 -30 3 -58 -1 -64 -3 -5 -12
-23 -18 -38 -12 -28 -12 -28 20 -25 30 3 33 0 33 -24 0 -39 15 -51 48 -36 18
9 25 18 21 30 -9 31 14 28 52 -6 27 -25 35 -39 30 -52 -5 -13 0 -23 16 -35 20
-16 22 -21 12 -47 -14 -36 9 -70 46 -68 20 1 26 -4 28 -27 2 -16 -2 -35 -9
-43 -9 -11 -9 -18 -1 -26 9 -9 12 -8 12 5 0 10 8 17 19 17 21 0 41 -44 41 -92
0 -25 2 -27 20 -16 24 15 29 10 37 -38 3 -22 12 -43 20 -47 8 -5 11 -17 8 -30
-5 -18 0 -25 25 -34 29 -11 31 -14 24 -47 -5 -30 -4 -35 9 -30 20 7 41 -24 67
-100 11 -33 24 -64 28 -70 14 -18 32 -78 27 -87 -9 -13 -53 11 -58 32 -5 20
-27 27 -27 8 0 -22 62 -99 79 -99 27 0 66 -44 86 -96 16 -44 16 -46 -1 -59
-33 -25 -52 -15 -93 46 -26 39 -95 87 -123 86 -23 0 -23 -1 7 -33 l25 -27 -37
-13 c-20 -7 -39 -11 -42 -9 -8 9 -31 -17 -31 -36 0 -29 -17 -32 -49 -8 -24 18
-38 20 -77 15 -27 -3 -62 -1 -79 4 -95 28 -110 30 -121 16 -6 -8 -24 -14 -42
-14 -17 1 -37 -4 -44 -10 -7 -6 -45 -18 -83 -26 -39 -9 -81 -20 -95 -25 -32
-11 -85 -26 -181 -49 -76 -19 -149 -63 -165 -101 -20 -50 -21 -80 -3 -97 11
-9 19 -23 19 -31 0 -21 37 -7 74 28 26 24 33 26 45 15 11 -12 18 -11 45 4 19
12 50 19 81 19 34 0 92 14 181 45 73 25 146 46 162 46 32 0 134 24 153 35 5 4
27 -1 47 -11 22 -10 62 -18 99 -19 51 -1 64 -5 80 -23 19 -24 31 -26 101 -16
23 3 42 2 42 -3 0 -14 -23 -40 -39 -45 -17 -5 46 -44 87 -55 47 -11 136 -63
164 -96 41 -48 82 -87 91 -87 4 0 4 -12 1 -27 -7 -25 -6 -27 9 -14 16 13 22 8
18 -13 -1 -5 7 -18 17 -30 11 -11 30 -52 42 -91 13 -38 29 -85 36 -103 8 -18
14 -44 14 -57 0 -14 6 -42 14 -62 7 -21 21 -69 30 -108 25 -103 46 -176 62
-213 8 -18 14 -44 14 -58 0 -14 6 -37 14 -52 7 -15 17 -47 21 -72 4 -25 10
-49 14 -55 3 -5 11 -30 17 -55 11 -44 12 -44 13 -11 1 46 -13 118 -70 356 -26
110 -59 250 -73 310 -15 61 -33 135 -41 165 -8 30 -30 118 -50 195 -19 77 -41
163 -49 191 -15 54 -124 343 -135 359 -4 6 -16 33 -26 60 -28 76 -188 412
-248 520 -18 33 -47 85 -63 115 -63 114 -136 244 -158 279 -77 121 -202 376
-210 426 -25 167 -258 383 -614 571 -149 79 -168 90 -213 121 -25 17 -64 52
-87 78 -67 75 -122 113 -192 134 -78 24 -145 29 -225 19z"/>
<path d="M7970 15811 c0 -4 20 -14 45 -21 25 -7 48 -17 51 -21 3 -5 19 -9 35
-9 36 0 159 -54 159 -70 0 -7 8 -9 21 -5 19 6 89 -30 89 -46 0 -15 76 -45 99
-39 38 9 35 23 -14 63 -56 47 -116 78 -241 122 -78 28 -113 35 -171 35 -40 0
-73 -4 -73 -9z"/>
<path d="M7654 15781 c-89 -37 -153 -80 -226 -155 -72 -73 -94 -136 -38 -106
21 11 21 11 4 -17 -10 -15 -34 -46 -55 -68 -45 -49 -62 -82 -55 -102 12 -30
75 1 147 74 26 25 59 27 59 3 0 -12 -33 -46 -51 -52 -7 -2 -9 -9 -5 -17 5 -8
22 -10 54 -5 80 11 104 35 62 62 -27 16 -25 37 5 77 26 33 55 48 73 36 13 -8
62 -100 62 -117 0 -25 58 -31 245 -22 130 6 143 16 185 132 10 27 12 27 33 13
32 -21 32 -42 -2 -74 -17 -16 -35 -41 -40 -56 -6 -15 -17 -27 -26 -27 -8 0
-15 -5 -15 -11 0 -7 9 -9 23 -5 12 4 64 8 115 10 51 2 99 9 107 16 18 15 141
4 173 -16 19 -13 25 -12 45 0 12 9 54 22 92 31 38 9 75 21 82 27 20 16 15 38
-11 48 -13 5 -27 14 -31 19 -3 6 -37 11 -74 11 -54 0 -74 4 -95 21 -15 12 -29
19 -32 16 -3 -2 -39 13 -80 34 -41 22 -84 39 -94 39 -14 0 -23 12 -31 40 -12
38 -24 50 -31 31 -5 -14 -27 -16 -105 -7 -60 6 -74 11 -87 32 -21 31 -50 31
-92 -1 -40 -30 -67 -32 -85 -5 -14 21 -14 21 -48 -5 -42 -30 -72 -32 -89 -5
-12 19 -52 28 -52 12 0 -9 -59 -32 -83 -32 -9 0 -17 4 -17 9 0 15 111 91 133
91 24 0 87 29 87 41 0 18 -67 8 -136 -20z"/>
<path d="M5395 15769 c-152 -25 -203 -38 -279 -75 -93 -44 -174 -134 -121
-134 21 0 19 -13 -5 -35 -11 -10 -20 -24 -20 -31 0 -7 -6 -14 -12 -17 -10 -3
-10 -7 1 -20 12 -15 10 -17 -16 -17 -16 0 -36 -9 -46 -20 -10 -12 -29 -20 -46
-20 -32 0 -56 -18 -66 -51 -9 -27 15 -53 65 -68 22 -6 44 -21 50 -31 13 -24
46 -26 58 -4 19 33 230 52 267 24 6 -5 47 -11 93 -15 61 -6 82 -5 82 4 0 20
-27 41 -62 48 -18 3 -50 14 -71 25 -31 16 -37 23 -32 41 13 46 31 69 66 88 42
21 49 15 49 -45 0 -22 10 -44 33 -70 l32 -38 85 0 c197 1 236 3 251 15 16 12
41 81 54 145 4 17 8 32 9 32 15 0 66 -24 66 -31 0 -13 91 -69 113 -69 25 0 44
-46 29 -71 -17 -26 7 -26 41 1 l26 20 6 -20 c4 -14 15 -20 35 -20 61 0 43 45
-41 108 -28 20 -69 54 -92 74 -24 20 -55 40 -69 43 -15 4 -29 13 -32 20 -3 8
-24 19 -48 25 -24 6 -59 19 -78 29 -22 12 -47 17 -68 14 -18 -3 -39 0 -47 7
-9 8 -28 9 -55 5 -31 -5 -41 -3 -46 8 -9 24 -35 29 -49 10 -11 -15 -19 -16
-56 -6 -30 8 -49 8 -66 0 -19 -8 -29 -7 -52 11 -32 23 -41 20 -41 -16 0 -20
-4 -23 -21 -19 -12 3 -30 0 -41 -6 -16 -9 -22 -9 -25 1 -3 6 -12 12 -20 12
-14 0 -14 -3 2 -20 15 -17 16 -20 3 -25 -21 -8 -81 8 -86 23 -2 6 9 17 24 23
16 5 31 14 34 18 9 15 91 52 100 46 6 -3 20 1 32 9 12 9 38 16 56 16 19 0 45
9 58 19 14 11 33 17 44 14 27 -7 72 5 65 17 -7 11 -47 11 -120 -1z"/>
<path d="M4473 14155 c8 -279 34 -484 93 -715 48 -189 143 -441 200 -532 13
-20 24 -41 24 -45 0 -10 73 -117 83 -121 4 -2 7 -8 7 -14 0 -5 6 -16 13 -23 6
-8 17 -20 22 -27 65 -83 91 -114 98 -116 4 -2 13 -18 21 -35 11 -28 192 -214
323 -334 23 -21 59 -54 80 -73 21 -19 60 -53 88 -75 27 -22 59 -50 71 -62 12
-13 24 -23 27 -23 4 0 31 -19 62 -41 34 -26 55 -49 55 -62 0 -16 5 -18 26 -13
22 6 27 2 37 -23 6 -16 21 -34 34 -40 13 -6 23 -17 23 -26 0 -8 5 -15 10 -15
6 0 10 -9 10 -20 0 -12 10 -25 25 -32 13 -6 22 -15 18 -21 -3 -6 -2 -7 4 -4 5
3 29 -7 54 -24 24 -16 48 -29 53 -29 15 0 150 -63 169 -79 9 -8 41 -15 70 -16
28 -2 72 -10 97 -20 25 -9 72 -19 105 -21 33 -3 96 -9 140 -15 132 -18 242
-20 249 -4 3 9 16 12 39 9 25 -3 37 0 41 11 4 10 20 15 50 15 34 0 48 5 59 20
11 15 21 19 44 14 21 -4 35 -1 46 11 9 9 21 13 27 10 5 -3 10 -2 10 4 0 6 17
13 38 16 20 4 46 10 57 15 11 5 35 12 53 15 17 4 32 10 32 15 0 4 12 11 27 15
15 3 37 17 49 30 27 29 17 41 -43 48 -32 3 -43 1 -43 -9 0 -8 -4 -14 -10 -14
-15 0 -12 11 7 32 26 29 3 44 -38 25 -52 -23 -89 -27 -304 -33 -236 -6 -396
-4 -409 3 -5 4 -48 7 -95 8 -93 2 -240 33 -309 66 -24 11 -58 23 -75 26 -19 4
-57 29 -91 60 -33 29 -63 53 -67 53 -4 0 -14 16 -23 35 -9 19 -20 35 -24 35
-11 0 -75 86 -102 135 -27 51 -44 79 -50 85 -17 15 -48 69 -54 92 -3 14 -17
40 -31 56 -14 17 -25 34 -25 40 0 5 -7 15 -16 22 -8 8 -21 28 -29 47 -9 21
-32 44 -65 65 -30 18 -53 41 -56 55 -4 12 -10 23 -15 23 -5 0 -9 7 -9 15 0 8
-7 15 -16 15 -9 0 -27 9 -41 20 -14 11 -30 20 -34 20 -5 0 -9 -9 -9 -20 0 -12
-7 -20 -16 -20 -10 0 -14 5 -10 15 4 11 -3 19 -19 25 -18 7 -25 17 -25 37 0
19 -3 24 -9 15 -6 -10 -14 -6 -34 17 -14 17 -33 31 -42 31 -8 0 -29 14 -45 30
-16 17 -33 30 -37 30 -5 0 -28 20 -53 44 -24 24 -50 42 -57 39 -9 -4 -34 27
-37 47 -1 3 -8 5 -16 5 -18 0 -62 65 -56 82 6 14 -42 55 -55 47 -5 -3 -9 4 -9
15 0 15 -6 21 -21 21 -19 0 -20 2 -8 16 11 14 11 18 -3 28 -9 7 -20 24 -23 38
-4 15 -13 29 -21 32 -8 3 -14 13 -14 23 0 10 -9 29 -20 43 -11 14 -20 35 -20
48 0 28 -18 29 -22 0 -3 -21 -4 -21 -20 -4 -10 9 -20 29 -24 44 -3 15 -9 35
-15 44 -5 10 -9 30 -9 45 -1 16 -7 39 -15 53 -8 14 -14 44 -15 67 0 24 -6 45
-14 50 -8 5 -18 44 -25 103 -6 52 -13 102 -14 110 -2 8 -7 42 -11 75 -4 33
-15 76 -24 95 -11 25 -17 75 -20 170 -2 74 -6 137 -9 140 -3 3 -3 -89 0 -205z
m955 -1593 c17 -2 32 -9 32 -15 0 -6 6 -18 14 -26 18 -22 37 -81 29 -94 -4 -6
-11 -3 -20 8 -7 11 -24 21 -38 22 -28 4 -32 -2 -12 -20 44 -40 69 -61 65 -52
-3 6 0 16 8 23 13 12 15 11 13 -4 0 -4 13 -15 30 -25 17 -10 31 -24 31 -31 0
-7 11 -26 24 -41 22 -25 43 -93 33 -103 -3 -3 -12 2 -20 11 -9 8 -18 11 -21 6
-4 -5 1 -17 10 -26 13 -12 14 -19 5 -28 -8 -8 -11 -8 -11 1 0 7 -12 12 -26 12
-17 0 -28 6 -31 19 -3 11 -15 22 -27 25 -12 3 -32 20 -46 38 -13 18 -29 37
-37 41 -7 4 -13 14 -13 21 0 7 -13 25 -30 41 -16 16 -30 34 -30 41 0 7 -6 15
-12 17 -13 6 -6 14 32 37 12 7 13 11 2 22 -7 7 -16 13 -20 14 -4 0 -15 4 -24
8 -15 7 -15 10 7 34 13 14 21 30 18 36 -4 6 1 6 13 1 10 -4 34 -10 52 -13z"/>
<path d="M7232 14080 c-102 -15 -332 -151 -332 -196 0 -21 23 -17 76 11 54 29
307 115 336 115 10 0 29 -11 42 -25 28 -30 56 -31 114 -5 57 26 57 51 -1 49
-31 -2 -53 5 -83 24 -47 32 -82 38 -152 27z"/>
<path d="M5950 14042 c0 -30 71 -98 115 -112 68 -20 160 -38 168 -33 11 7 8
33 -4 33 -5 0 -7 5 -3 11 14 23 211 -27 336 -85 84 -39 152 -55 162 -38 3 6
-11 20 -31 33 -21 12 -49 32 -63 45 -28 25 -74 53 -140 85 -25 12 -53 25 -62
30 -9 5 -57 18 -107 30 -108 26 -148 21 -176 -20 -17 -26 -24 -29 -58 -26 -40
4 -107 39 -107 56 0 5 -7 9 -15 9 -8 0 -15 -8 -15 -18z"/>
<path d="M9025 13418 c-11 -35 -20 -69 -21 -77 -2 -8 -10 -18 -18 -23 -9 -5
-16 -20 -16 -33 0 -13 -4 -27 -10 -30 -10 -6 -60 -102 -60 -116 0 -15 -64 -98
-77 -98 -6 -1 -14 -10 -18 -20 -5 -17 -62 -78 -121 -128 -11 -10 -26 -28 -32
-39 -6 -12 -24 -24 -39 -27 -19 -4 -34 -18 -48 -44 -13 -24 -27 -37 -38 -37
-12 1 -20 -7 -24 -27 -3 -16 -9 -29 -13 -29 -4 0 -18 -11 -31 -25 -13 -13 -30
-25 -36 -25 -7 0 -13 -5 -13 -11 0 -5 5 -7 10 -4 6 3 10 2 10 -3 0 -6 -7 -12
-15 -16 -8 -3 -15 -1 -15 5 0 6 -5 7 -10 4 -7 -4 -6 -13 1 -27 9 -17 6 -25
-20 -52 -17 -18 -31 -37 -31 -43 0 -6 -35 -47 -77 -91 -43 -44 -83 -86 -89
-94 -7 -7 -37 -31 -68 -53 -31 -22 -56 -45 -56 -52 0 -7 -7 -10 -15 -7 -11 5
-17 -3 -21 -25 -5 -23 -14 -33 -39 -41 -21 -7 -37 -21 -45 -39 -11 -28 -68
-78 -82 -73 -5 1 -8 -3 -8 -9 0 -6 -6 -9 -13 -6 -16 6 -63 -18 -59 -30 1 -4
-2 -8 -6 -8 -5 0 -37 -25 -73 -56 -82 -71 -123 -99 -144 -99 -9 0 -29 -8 -43
-19 -15 -10 -46 -28 -69 -40 -24 -12 -43 -26 -43 -31 0 -14 93 -13 107 1 6 6
32 15 57 20 26 5 62 20 80 34 18 14 36 25 39 25 3 0 32 18 64 40 79 55 217
150 262 180 21 14 58 41 82 61 24 20 62 47 84 59 57 32 195 132 195 142 0 4
-11 8 -25 8 -34 0 -31 9 14 48 77 65 220 218 270 287 28 39 59 81 70 95 89
118 221 317 221 335 0 4 58 135 69 155 8 14 39 117 46 150 2 8 10 32 19 52 17
41 21 68 8 68 -5 0 -17 -28 -27 -62z"/>
<path d="M7610 13360 c-11 -11 -30 -20 -43 -20 -12 0 -32 -7 -44 -15 -13 -9
-43 -15 -75 -15 -29 0 -79 0 -110 0 -31 1 -85 -6 -119 -15 -49 -13 -67 -14
-90 -4 -32 13 -74 4 -50 -10 19 -12 -13 -29 -59 -31 -19 0 -48 -1 -65 -2 -16
-1 -52 0 -80 2 -27 1 -68 -1 -90 -6 -22 -4 -97 -8 -167 -7 -109 0 -132 3 -172
23 -25 12 -46 26 -46 31 0 5 -9 9 -20 9 -11 0 -20 -4 -20 -9 0 -18 -33 -21
-57 -5 -16 10 -34 13 -50 9 -16 -4 -37 1 -60 15 -38 22 -103 27 -103 8 0 -7
-8 -2 -16 12 -16 26 -17 26 -98 17 -55 -6 -95 -5 -127 3 -32 8 -53 8 -73 0
-15 -5 -57 -10 -94 -10 -97 0 -112 -6 -112 -44 0 -38 21 -70 83 -128 26 -25
47 -50 47 -55 0 -9 22 -23 36 -23 6 0 -8 63 -18 84 -7 12 -6 22 1 29 8 8 27
-1 66 -29 31 -21 67 -45 81 -52 34 -18 31 -67 -3 -66 -13 0 -23 -5 -23 -12 0
-7 -8 -10 -20 -7 -11 3 -20 9 -20 14 0 5 -9 9 -19 9 -11 0 -22 8 -24 18 -4 13
-5 13 -6 -4 -1 -30 82 -110 112 -107 12 1 16 0 9 -3 -17 -8 3 -34 26 -34 8 0
49 -20 91 -44 42 -25 109 -58 148 -74 62 -25 75 -28 90 -16 14 10 16 15 6 25
-7 7 -13 17 -13 21 0 14 47 9 59 -6 8 -9 24 -13 44 -10 88 11 112 11 133 2 17
-8 27 -8 38 1 10 8 16 9 21 1 7 -12 45 -14 45 -2 0 10 93 8 108 -2 6 -3 15 1
22 9 10 12 7 15 -14 21 -15 3 -45 4 -69 1 -23 -3 -51 -2 -62 2 -11 5 -31 5
-45 1 -19 -5 -33 -2 -49 11 -23 19 -23 20 -5 40 18 20 18 22 1 51 -9 16 -17
34 -17 39 0 16 -53 58 -74 59 -16 0 -17 5 -12 32 4 18 13 39 20 47 32 32 185
22 245 -16 38 -24 167 -26 211 -4 58 30 399 83 384 60 -6 -11 21 -18 91 -25
45 -5 65 -11 65 -20 0 -8 -8 -14 -19 -14 -14 0 -17 -6 -14 -24 3 -13 -2 -38
-11 -55 -13 -25 -22 -30 -41 -27 -14 3 -25 0 -25 -5 0 -5 -7 -9 -15 -9 -20 0
-19 -19 1 -41 20 -22 24 -59 10 -78 -9 -12 -5 -13 23 -8 18 4 37 7 42 7 5 0 9
6 9 14 0 18 12 26 48 32 15 3 31 12 35 20 4 8 13 14 18 14 6 0 27 11 47 25 20
14 49 25 64 25 27 0 39 12 110 114 10 13 42 36 72 50 30 14 61 31 68 38 31 30
78 58 95 58 10 0 24 -9 31 -21 l13 -20 37 22 c20 12 48 32 60 44 l24 22 -23
22 c-22 20 -31 21 -99 16 -45 -4 -95 -2 -125 5 -27 6 -76 13 -108 16 -47 3
-61 0 -77 -16z"/>
<path d="M4420 10060 c0 -11 12 -23 93 -94 31 -27 57 -58 59 -70 2 -17 10 -21
38 -21 l35 0 3 53 c3 60 -3 70 -62 114 -33 24 -49 28 -103 28 -35 0 -63 -4
-63 -10z"/>
<path d="M4320 9919 c-64 -48 -86 -60 -105 -55 -21 5 -25 2 -30 -27 -8 -41 5
-74 41 -111 36 -35 63 -46 119 -46 47 0 75 19 75 50 0 17 -3 18 -25 8 -22 -10
-28 -7 -64 33 -22 24 -40 50 -41 58 0 7 29 41 65 74 62 58 76 77 56 77 -6 0
-46 -27 -91 -61z"/>
<path d="M9253 9839 c-95 -18 -168 -97 -161 -177 4 -49 28 -53 58 -10 12 18
44 49 72 68 27 19 65 47 85 63 32 24 38 26 57 14 15 -10 27 -11 44 -4 18 8 27
6 45 -10 25 -24 95 -58 103 -51 11 12 -61 68 -87 68 -15 0 -29 6 -32 13 -5 13
-85 35 -122 34 -11 0 -39 -4 -62 -8z"/>
<path d="M9400 9663 c0 -9 -7 -24 -16 -34 -14 -16 -14 -18 6 -24 12 -4 27 -2
33 4 15 15 33 14 51 -4 17 -17 11 -45 -9 -45 -6 0 -20 -9 -30 -20 -25 -28 -46
-19 -118 51 -33 32 -65 59 -72 59 -30 0 -20 -18 41 -76 58 -56 65 -67 62 -96
l-3 -33 60 1 c86 1 144 40 179 120 14 33 16 46 7 63 -17 30 -51 28 -51 -4 0
-14 -4 -25 -9 -25 -21 0 -61 20 -61 31 0 14 -41 48 -57 49 -7 0 -13 -8 -13
-17z"/>
<path d="M2736 6069 c-2 -13 -12 -78 -21 -144 -9 -66 -22 -160 -30 -210 -8
-49 -16 -115 -17 -145 l-3 -55 115 -11 c63 -7 228 -22 365 -33 296 -26 501
-44 800 -72 121 -11 297 -26 390 -34 284 -24 591 -52 875 -80 103 -10 138 -11
146 -2 7 7 22 110 33 232 12 121 27 242 33 268 12 58 7 65 -52 72 -107 10
-279 26 -465 40 -110 9 -274 22 -365 30 -91 8 -250 21 -355 30 -104 8 -257 22
-340 30 -82 8 -224 21 -315 30 -395 36 -662 62 -737 71 -49 6 -52 5 -57 -17z
m716 -224 c34 -235 34 -255 -1 -255 -14 0 -21 9 -26 33 -15 69 -49 76 -83 16
-40 -69 -85 -26 -49 46 15 29 41 86 78 173 17 38 22 43 46 40 25 -3 29 -8 35
-53z m253 21 c85 -36 88 -187 5 -274 -28 -30 -37 -33 -67 -29 -19 4 -46 13
-60 22 -21 14 -24 22 -19 48 4 18 11 72 17 121 13 124 39 147 124 112z m278
-17 c60 -12 76 -29 50 -54 -11 -12 -26 -14 -58 -10 -33 6 -43 4 -48 -9 -10
-26 3 -45 31 -48 21 -2 28 -9 30 -30 3 -26 1 -28 -37 -28 -31 0 -41 -4 -46
-20 -10 -31 11 -49 63 -52 51 -3 66 -23 38 -50 -12 -12 -26 -13 -78 -5 -89 14
-91 16 -83 106 9 105 23 181 36 197 14 17 29 17 102 3z m204 -31 c5 -7 18 -40
29 -73 l19 -60 3 55 c3 59 19 81 52 73 24 -6 25 -36 9 -162 -17 -132 -16 -131
-44 -131 -27 0 -39 18 -49 71 -3 19 -13 44 -21 55 -13 17 -14 15 -15 -33 0
-70 -7 -83 -43 -83 l-30 0 7 63 c14 134 25 218 31 227 9 14 41 12 52 -2z m275
-142 c-2 -127 -14 -171 -47 -171 -17 0 -20 8 -23 55 -4 60 14 194 30 223 5 10
17 17 26 15 15 -3 17 -18 14 -122z m226 92 c13 -17 55 -238 50 -269 -2 -16
-11 -25 -25 -27 -18 -3 -24 4 -34 37 -7 25 -20 43 -32 47 -21 7 -24 3 -68 -58
-14 -19 -19 -21 -33 -9 -26 22 -26 23 43 173 16 36 33 78 37 92 7 28 43 36 62
14z"/>
<path d="M5816 3634 c1 -58 4 -108 7 -111 4 -3 1 -15 -5 -27 -7 -11 -11 -31
-9 -43 3 -31 -42 -103 -85 -133 -67 -47 -101 -79 -82 -80 44 0 151 93 186 161
12 24 26 64 31 89 13 58 -2 178 -27 219 l-18 30 2 -105z"/>
<path d="M7792 3675 c-46 -38 -75 -118 -69 -185 5 -54 49 -175 71 -195 6 -5
26 -29 44 -51 17 -23 47 -49 66 -58 19 -9 37 -22 39 -29 4 -8 6 -7 6 3 1 8
-23 40 -52 70 -60 63 -117 151 -117 180 0 13 10 24 25 30 27 10 33 35 11 43
-24 10 -48 54 -41 77 3 11 19 27 35 35 27 14 29 20 28 60 -1 25 -6 45 -9 45
-4 0 -21 -11 -37 -25z"/>
<path d="M7910 811 c-92 -48 -137 -202 -95 -322 21 -58 100 -176 124 -184 10
-3 22 -12 25 -20 6 -17 36 -21 36 -5 0 6 -4 10 -10 10 -13 0 -59 51 -66 75 -4
11 -20 35 -36 54 -22 24 -28 40 -24 57 4 16 0 30 -14 44 -13 13 -20 33 -20 57
0 30 7 43 44 77 40 37 43 43 31 61 -12 17 -11 25 1 54 13 30 17 33 44 27 25
-5 30 -2 30 14 0 25 -24 26 -70 1z"/>
</g>
</svg>
